<svg width="36" height="36" viewBox="0 0 36 36" fill="none" xmlns="http://www.w3.org/2000/svg">
<path d="M24.285 3H11.715C6.255 3 3 6.255 3 11.715V24.27C3 29.745 6.255 33 11.715 33H24.27C29.73 33 32.985 29.745 32.985 24.285V11.715C33 6.255 29.745 3 24.285 3Z" fill="#5A48C3"/>
<path d="M10.3203 28.3501C9.70531 28.3501 9.19531 27.8401 9.19531 27.2251V24.1201C9.19531 23.5051 9.70531 22.9951 10.3203 22.9951C10.9353 22.9951 11.4453 23.5051 11.4453 24.1201V27.2251C11.4453 27.8551 10.9353 28.3501 10.3203 28.3501Z" fill="#B7E08A"/>
<path d="M18 28.35C17.385 28.35 16.875 27.84 16.875 27.225V21C16.875 20.385 17.385 19.875 18 19.875C18.615 19.875 19.125 20.385 19.125 21V27.225C19.125 27.855 18.615 28.35 18 28.35Z" fill="#B7E08A"/>
<path d="M25.6797 28.3495C25.0647 28.3495 24.5547 27.8395 24.5547 27.2245V17.8945C24.5547 17.2795 25.0647 16.7695 25.6797 16.7695C26.2947 16.7695 26.8047 17.2795 26.8047 17.8945V27.2245C26.8047 27.8545 26.3097 28.3495 25.6797 28.3495Z" fill="#B7E08A"/>
<path d="M26.8045 8.73039C26.8045 8.65539 26.7745 8.56539 26.7595 8.49039C26.7445 8.43039 26.7295 8.35539 26.7145 8.29539C26.6845 8.23539 26.6395 8.19039 26.6095 8.13039C26.5645 8.07039 26.5195 7.99539 26.4595 7.95039C26.4445 7.93539 26.4445 7.92039 26.4295 7.92039C26.3845 7.89039 26.3395 7.87539 26.2945 7.84539C26.2345 7.80039 26.1595 7.75539 26.0845 7.72539C26.0095 7.69539 25.9345 7.69539 25.8595 7.68039C25.7995 7.66539 25.7545 7.65039 25.6945 7.65039H21.2995C20.6845 7.65039 20.1745 8.16039 20.1745 8.77539C20.1745 9.39039 20.6845 9.90039 21.2995 9.90039H23.1745C19.6045 13.6504 15.1045 16.2904 10.0495 17.5654C9.44948 17.7154 9.07448 18.3304 9.22448 18.9304C9.34448 19.4404 9.80948 19.7854 10.3195 19.7854C10.4095 19.7854 10.4995 19.7704 10.5895 19.7554C15.9445 18.4204 20.7295 15.6454 24.5545 11.7154V13.1704C24.5545 13.7854 25.0645 14.2954 25.6795 14.2954C26.2945 14.2954 26.8045 13.7854 26.8045 13.1704V8.77539C26.8045 8.76039 26.8045 8.74539 26.8045 8.73039Z" fill="#B7E08A"/>
</svg>
