<svg width="36" height="36" viewBox="0 0 36 36" fill="none" xmlns="http://www.w3.org/2000/svg">
<path d="M30 9V9.36H22.305C17.85 9.36 15.78 11.43 15.78 15.885V23.55H14.625V28.875H15.78V31.125H7.425C6.81 31.125 6.3 30.615 6.3 30C6.3 29.385 6.81 28.875 7.425 28.875H12.375V23.55H9C4.305 23.55 3.045 22.395 3 17.85V9C3 4.2 4.2 3 9 3H24C28.8 3 30 4.2 30 9Z" fill="#B7E08A"/>
<path d="M29.9993 11.6854C29.6243 11.6404 29.1893 11.6104 28.7243 11.6104H22.3043C19.0943 11.6104 18.0293 12.6754 18.0293 15.8854V28.8754C18.0443 29.8054 18.1493 30.5404 18.3743 31.1254C18.8993 32.4904 20.0843 33.0004 22.3043 33.0004H28.7243C31.9343 33.0004 32.9993 31.9353 32.9993 28.7253V15.8854C32.9993 13.1404 32.2193 11.9704 29.9993 11.6854ZM25.5143 15.1354C26.8193 15.1354 27.8693 16.1854 27.8693 17.4904C27.8693 18.7954 26.8193 19.8454 25.5143 19.8454C24.2093 19.8454 23.1593 18.7954 23.1593 17.4904C23.1593 16.1854 24.2093 15.1354 25.5143 15.1354ZM25.5143 28.7253C23.7443 28.7253 22.3043 27.2854 22.3043 25.5154C22.3043 24.7804 22.5593 24.0904 22.9793 23.5504C23.5643 22.8004 24.4793 22.3054 25.5143 22.3054C26.3243 22.3054 27.0593 22.6054 27.6143 23.0854C28.2893 23.6854 28.7243 24.5554 28.7243 25.5154C28.7243 27.2854 27.2843 28.7253 25.5143 28.7253Z" fill="#5A48C3"/>
<path d="M29.9993 11.6854C29.6243 11.6404 29.1893 11.6104 28.7243 11.6104H22.3043C19.0943 11.6104 18.0293 12.6754 18.0293 15.8854V28.8754C18.0443 29.8054 18.1493 30.5404 18.3743 31.1254C18.8993 32.4904 20.0843 33.0004 22.3043 33.0004H28.7243C31.9343 33.0004 32.9993 31.9353 32.9993 28.7253V15.8854C32.9993 13.1404 32.2193 11.9704 29.9993 11.6854ZM25.5143 15.1354C26.8193 15.1354 27.8693 16.1854 27.8693 17.4904C27.8693 18.7954 26.8193 19.8454 25.5143 19.8454C24.2093 19.8454 23.1593 18.7954 23.1593 17.4904C23.1593 16.1854 24.2093 15.1354 25.5143 15.1354ZM25.5143 28.7253C23.7443 28.7253 22.3043 27.2854 22.3043 25.5154C22.3043 24.7804 22.5593 24.0904 22.9793 23.5504C23.5643 22.8004 24.4793 22.3054 25.5143 22.3054C26.3243 22.3054 27.0593 22.6054 27.6143 23.0854C28.2893 23.6854 28.7243 24.5554 28.7243 25.5154C28.7243 27.2854 27.2843 28.7253 25.5143 28.7253Z" fill="#5A48C3"/>
</svg>
