<svg width="36" height="36" viewBox="0 0 36 36" fill="none" xmlns="http://www.w3.org/2000/svg">
<path d="M24.7656 7.515L21.8256 4.575C19.7256 2.475 16.2756 2.475 14.1756 4.575L11.2356 7.515C10.6506 8.1 10.6506 9.06 11.2356 9.645L16.9506 15.36C17.5356 15.945 18.4806 15.945 19.0656 15.36L24.7806 9.645C25.3506 9.06 25.3506 8.1 24.7656 7.515Z" fill="#B7E08A"/>
<path d="M7.515 11.2346L4.575 14.1746C2.475 16.2746 2.475 19.7246 4.575 21.8246L7.515 24.7646C8.1 25.3496 9.045 25.3496 9.63 24.7646L15.345 19.0496C15.93 18.4646 15.93 17.5196 15.345 16.9346L9.645 11.2346C9.06 10.6496 8.1 10.6496 7.515 11.2346Z" fill="#5A48C3"/>
<path d="M31.4255 14.1746L28.4855 11.2346C27.9005 10.6496 26.9555 10.6496 26.3705 11.2346L20.6555 16.9496C20.0705 17.5346 20.0705 18.4796 20.6555 19.0646L26.3705 24.7796C26.9555 25.3646 27.9005 25.3646 28.4855 24.7796L31.4255 21.8396C33.5255 19.7246 33.5255 16.2746 31.4255 14.1746Z" fill="#5A48C3"/>
<path d="M11.2356 28.4846L14.1756 31.4246C16.2756 33.5246 19.7256 33.5246 21.8256 31.4246L24.7656 28.4846C25.3506 27.8996 25.3506 26.9546 24.7656 26.3696L19.0506 20.6546C18.4656 20.0696 17.5206 20.0696 16.9356 20.6546L11.2206 26.3696C10.6506 26.9396 10.6506 27.8996 11.2356 28.4846Z" fill="#B7E08A"/>
</svg>
