<svg width="36" height="36" viewBox="0 0 36 36" fill="none" xmlns="http://www.w3.org/2000/svg">
<path d="M13.5 3C9.57 3 6.375 6.195 6.375 10.125C6.375 13.98 9.39 17.1 13.32 17.235C13.44 17.22 13.56 17.22 13.65 17.235C13.68 17.235 13.695 17.235 13.725 17.235C13.74 17.235 13.74 17.235 13.755 17.235C17.595 17.1 20.61 13.98 20.625 10.125C20.625 6.195 17.43 3 13.5 3Z" fill="#5A48C3"/>
<path d="M21.1195 21.2253C16.9345 18.4353 10.1095 18.4353 5.89445 21.2253C3.98945 22.5003 2.93945 24.2253 2.93945 26.0703C2.93945 27.9153 3.98945 29.6253 5.87945 30.8853C7.97945 32.2953 10.7395 33.0003 13.4995 33.0003C16.2595 33.0003 19.0195 32.2953 21.1195 30.8853C23.0095 29.6103 24.0595 27.9003 24.0595 26.0403C24.0445 24.1953 23.0095 22.4853 21.1195 21.2253Z" fill="#5A48C3"/>
<path d="M29.9841 11.0102C30.2241 13.9202 28.1541 16.4702 25.2891 16.8152C25.2741 16.8152 25.2741 16.8152 25.2591 16.8152H25.2141C25.1241 16.8152 25.0341 16.8151 24.9591 16.8451C23.5041 16.9201 22.1691 16.4551 21.1641 15.6001C22.7091 14.2201 23.5941 12.1501 23.4141 9.90015C23.3091 8.68515 22.8891 7.57515 22.2591 6.63015C22.8291 6.34515 23.4891 6.16515 24.1641 6.10515C27.1041 5.85015 29.7291 8.04015 29.9841 11.0102Z" fill="#B7E08A"/>
<path d="M32.9844 24.8846C32.8644 26.3396 31.9344 27.5996 30.3744 28.4546C28.8744 29.2796 26.9844 29.6696 25.1094 29.6246C26.1894 28.6496 26.8194 27.4346 26.9394 26.1446C27.0894 24.2846 26.2044 22.4996 24.4344 21.0746C23.4294 20.2796 22.2594 19.6496 20.9844 19.1846C24.2994 18.2246 28.4694 18.8696 31.0344 20.9396C32.4144 22.0496 33.1194 23.4446 32.9844 24.8846Z" fill="#B7E08A"/>
</svg>
