<svg width="36" height="36" viewBox="0 0 36 36" fill="none" xmlns="http://www.w3.org/2000/svg">
<path d="M29.595 24.15C29.595 24.105 29.625 24.06 29.625 24V9.75002C29.625 7.47002 27.78 5.62502 25.5 5.62502H19.605L21.72 3.87002C22.2 3.46502 22.26 2.76002 21.87 2.28002C21.465 1.80002 20.76 1.74002 20.28 2.13002L15.78 5.88002C15.525 6.09002 15.375 6.40502 15.375 6.75002C15.375 7.09502 15.525 7.39502 15.78 7.62002L20.28 11.37C20.49 11.55 20.745 11.625 21 11.625C21.315 11.625 21.645 11.49 21.87 11.22C22.275 10.74 22.2 10.035 21.72 9.63002L19.605 7.87502H25.5C26.535 7.87502 27.375 8.71502 27.375 9.75002V24C27.375 24.06 27.405 24.105 27.405 24.15C25.455 24.645 24 26.4 24 28.5C24 30.99 26.01 33 28.5 33C30.99 33 33 30.99 33 28.5C33 26.4 31.545 24.645 29.595 24.15Z" fill="#B7E08A"/>
<path d="M20.22 28.38L15.72 24.63C15.24 24.225 14.535 24.3 14.13 24.78C13.725 25.26 13.8 25.965 14.28 26.37L16.395 28.125H10.5C9.465 28.125 8.625 27.285 8.625 26.25V12C8.625 11.94 8.595 11.895 8.595 11.85C10.545 11.355 12 9.6 12 7.5C12 5.01 9.99 3 7.5 3C5.01 3 3 5.01 3 7.5C3 9.6 4.455 11.355 6.405 11.85C6.405 11.895 6.375 11.94 6.375 12V26.25C6.375 28.53 8.22 30.375 10.5 30.375H16.395L14.28 32.13C13.8 32.535 13.74 33.24 14.13 33.72C14.355 33.99 14.67 34.125 15 34.125C15.255 34.125 15.51 34.035 15.72 33.87L20.22 30.12C20.475 29.91 20.625 29.595 20.625 29.25C20.625 28.905 20.475 28.605 20.22 28.38Z" fill="#5A48C3"/>
</svg>
